<svg xmlns="http://www.w3.org/2000/svg">
  <symbol id="vk" viewBox="0 0 22 12">
    <path d="M17.6 12c-.3 0-.9-.1-1.5-.5-.5-.3-.9-.7-1.3-1.2-.3-.3-.9-.9-1.1-.9-.2.1-.4.7-.3 1.2 0 .1 0 .6-.3.9-.3.3-.8.4-.9.4h-1.4c-.7 0-3.2-.2-5.4-2.3C2.5 7.1.2 2.2.1 2 0 1.6-.1 1.2.2.9s.8-.4 1-.4h3.1c.1 0 .4.1.7.3.3.2.4.5.5.6.7 1.5 1.5 2.8 2.6 4 .1-.4.2-1.4.1-2.3 0-.4-.1-.8-.2-1-.1-.1-.3-.2-.5-.2l-.6-.5c0-.5.5-.9.9-1.1.5-.2 1.3-.3 2.3-.3h.5c.9 0 1.2.1 1.6.1 1.2.3 1.2 1.3 1.1 2.5v1.6c0 .3 0 .8.1 1 .2-.1.6-.5 1.5-1.9.6-.9 1-1.9 1.1-2.1.1-.3.4-.7 1.2-.7h3.4c.7 0 1.2.2 1.3.7.2.5.1 1.3-1.7 3.5-.3.3-.5.6-.7.9-.5.4-.9 1-.9 1.1s.5.5.9.9c1.1.9 1.9 1.7 2.2 2.3.4.6.3 1 .2 1.3-.3.7-1.2.7-1.4.8h-2.8-.1zm-3.9-3.7c.7 0 1.2.6 1.8 1.2.4.4.7.8 1.1 1 .5.3 1 .3 1 .3h2.9c.1 0 .3-.1.4-.1 0 0 0-.1-.1-.1-.3-.5-1-1.3-2-2.1-.9-.7-1.3-1.1-1.4-1.7 0-.6.4-1.1 1.2-2.1.2-.2.4-.5.7-.8 1.1-1.4 1.4-2 1.5-2.3h-3.9c0 .4-.5 1.5-1.1 2.4-1.4 2.1-2 2.4-2.5 2.4-.1 0-.3 0-.4-.1-.7-.4-.7-1.4-.7-2.1V2.6c.1-1.3 0-1.3-.3-1.4-.3-.1-.5-.1-1.4-.1H10c-.5 0-1 0-1.4.1l.2.2c.4.5.4 1.5.4 1.7.1 1.3 0 2.9-.7 3.3-.1 0-.2.1-.4.1-.6 0-1.3-.7-2.5-2.5C5 2.9 4.5 1.8 4.5 1.8s0-.1-.1-.1-.2-.1-.2-.1h-3c.4.9 2.5 5 4.8 7.2 2 1.9 4.3 2 4.7 2h1.4s.2 0 .2-.1v-.1c0-.2 0-2 1.2-2.3h.2z" />
  </symbol>
  <symbol id="ins" viewbox="0 0 22.99 23">
    <path d="M17,1.5A4.51,4.51,0,0,1,21.5,6V17A4.51,4.51,0,0,1,17,21.5H6A4.51,4.51,0,0,1,1.51,17V6A4.51,4.51,0,0,1,6,1.5H17M17,0H6A6,6,0,0,0,0,6V17a6,6,0,0,0,6,6H17a6,6,0,0,0,6-6V6a6,6,0,0,0-6-6Z"/>
    <path d="M11.51,7.08a4.43,4.43,0,1,1-4.43,4.43,4.42,4.42,0,0,1,4.43-4.43m0-1.5a5.93,5.93,0,1,0,5.92,5.93,5.92,5.92,0,0,0-5.92-5.93Z"/>
    <circle cx="17.63" cy="5.38" r="1.34"/>
  </symbol>
  <symbol id="fb" viewbox="0 0 13.52 27.75">
    <path d="M9.53,27.75H2.71V14.85H0V8.47H2.63c-.2-2.88.3-5,1.52-6.44A6.21,6.21,0,0,1,8.74,0h4.78V6.15H9.76a6.55,6.55,0,0,0-.25,2.32h4v6.38h-4Zm-5.31-1.5H8V13.35h4V10H8V9.24c0-2,0-3.79,1-4.46l.19-.13H12V1.5H8.78A4.67,4.67,0,0,0,5.29,3c-1,1.23-1.41,3.3-1.1,6.14l.1.83H1.5v3.38H4.22Z"/>
  </symbol>
  <symbol id="logo-academy" viewbox="0 0 26.95 34.09">
    <path d="M13.62,0l-.15,0L0,1.41V26.07l13.47,8,13.43-8,.05,0V1.41ZM25,12.13,13.5,5.33v-.1l-.08,0-.09-.06v.11L1.92,12.12v-9L13.47,1.93,25,3.15v9ZM13.41,6.79,24.92,13.5l-4.48,2.64-7.09-4.22v1.41l5.9,3.52-.86.5-5-3v1.42l3.82,2.27-.78.53-3-1.79V18.2l1.85,1.09-1.8,1.08L2,13.62ZM1.92,15.13l11.42,6.79v1L5.41,18.23v1.42l8,4.8,0,1.07-8-4.74V22.2l8,4.82,0,0,8.15-4.87V17L25,15V25L13.47,31.85,1.92,25Z"/>
  </symbol>
</svg>
